<svg width="73" height="78" viewBox="0 0 73 78" fill="none" xmlns="http://www.w3.org/2000/svg">
<path fill-rule="evenodd" clip-rule="evenodd" d="M18.4189 33.4858L35.0114 21.2422L51.6936 33.5745V50.6978H18.4189V33.4858ZM16.087 52.9158H53.7565V32.3324L35.0114 18.4918L16.2488 32.2255L16.087 52.9158ZM27.9906 18.9179V15.9706H23.185V22.2456L14.631 28.6156V31.8482C14.9166 31.7727 15.6486 31.1646 15.9355 30.9518L35.0068 17.0165L55.0943 31.658V28.4255L35.0068 13.7839L27.9906 18.9179ZM39.8017 50.1495C39.8054 48.2362 39.7981 46.2978 39.7894 44.3627C39.7856 43.5138 39.7879 42.5541 39.2711 41.8172C38.2265 40.3275 35.0749 41.5079 33.5128 39.0825C33.2999 38.752 32.795 37.543 33.0366 37.2661C33.1441 37.143 33.2474 37.0159 33.3464 36.8853C36.3431 32.9333 35.2834 26.128 30.0902 26.2296C24.7919 26.4475 24.3588 33.6353 27.9131 37.2865C28.2018 37.8733 27.6173 38.8042 27.1984 39.2485C26.422 40.0719 25.5238 40.5555 24.442 40.9005C23.9248 41.0655 22.6975 41.4092 22.3349 41.7352C21.4334 42.5459 21.6206 43.4927 21.6919 44.5504C21.721 44.9822 24.9502 47.3375 25.3921 47.6011C31.2422 50.5341 33.5571 50.1495 39.8017 50.1495ZM38.7327 39.8668L38.7498 40.3147C40.134 40.5348 40.8466 41.3666 40.8503 42.7166L40.871 50.1495C43.636 49.6395 48.6493 47.1484 49.6171 44.6451C49.6439 44.5757 49.6408 44.49 49.6501 44.3783C49.6682 44.1617 49.6611 43.9038 49.6584 43.7524C49.6523 43.415 49.6463 43.2464 49.5578 42.9177C48.9929 40.8198 46.2879 41.6163 44.7697 40.3192C44.4595 39.9319 43.6448 38.5571 43.9713 38.1831C44.0666 38.0738 44.1582 37.9611 44.246 37.8454C46.9035 34.3407 45.9637 28.3057 41.3583 28.3958C36.6598 28.589 36.2757 34.9633 39.4276 38.2011C39.7074 38.7695 39.1712 39.535 38.7327 39.8668ZM2.12809 32.3688L2.15375 32.3685H4.92281C6.26967 17.715 17.9226 6.07128 32.515 4.85448V2.38598C32.4299 1.09469 33.4092 0 34.6914 0C35.8908 0 36.8645 0.957075 36.8785 2.14289L36.8788 2.16872V4.80487C51.9289 5.71131 64.0135 17.6952 65.2008 32.7701H67.5674C68.8498 32.6844 69.9369 33.6705 69.9369 34.9616C69.9369 36.1693 68.9864 37.1498 67.8088 37.1639L67.7832 37.1642H65.2345C64.7757 44.4637 61.7642 51.0645 57.0888 56.0719C57.0596 56.1065 57.0281 56.1399 56.9941 56.1721L56.9605 56.2074L71.9286 70.6591C73.437 72.2588 73.3803 74.9436 71.5828 76.7318C70.8865 77.4244 69.7842 78 68.4785 78C66.211 78 64.7614 76.0033 63.6965 74.3785L53.467 59.5446C53.4203 59.5679 53.3286 59.5725 53.2092 59.571C48.7604 62.9401 43.3593 65.103 37.4843 65.5752V68.458C37.5694 69.7493 36.5901 70.844 35.3079 70.844C34.1085 70.844 33.1348 69.8869 33.1209 68.7011L33.1205 68.6753V65.6116C17.8177 64.644 5.60093 52.2229 4.83068 36.7626H2.36951C1.08713 36.8483 0 35.8622 0 34.571C0 33.3634 0.950469 32.3829 2.12809 32.3688ZM9.22186 32.3685H13.1249V36.7626H9.11518C9.87535 49.8438 20.1807 60.3424 33.1205 61.2966V57.6279H37.4843V61.2534C50.0496 60.0748 60.0169 49.8849 60.9494 37.1642H56.812V32.7701H60.9086C59.7416 20.0752 49.566 10.011 36.8788 9.11984V13.2161H32.515V9.1778C20.2864 10.3681 10.5394 20.0954 9.22186 32.3685Z" fill="#267F00"/>
</svg>
